<svg width="272" height="19" viewBox="0 0 272 19" fill="none" xmlns="http://www.w3.org/2000/svg">
<path d="M10.94 16.1892V18.0292H9.34C6.74 18.0292 4.6 17.1825 2.92 15.4892C1.24 13.7958 0.4 11.6892 0.4 9.16917C0.4 6.68917 1.24 4.62917 2.92 2.98917C4.6 1.34917 6.74 0.529174 9.34 0.529174H10.94V2.36917H9.34C7.23333 2.36917 5.54667 3.00251 4.28 4.26917C3.02667 5.52251 2.4 7.15584 2.4 9.16917C2.4 11.2492 3.02667 12.9425 4.28 14.2492C5.54667 15.5425 7.23333 16.1892 9.34 16.1892H10.94ZM27.4877 18.0292V0.529174H33.6677V2.34917H29.4877V18.0292H27.4877ZM24.3877 18.0292V2.34917H20.0477V0.529174H26.3877V18.0292H24.3877ZM57.4711 18.0292H55.4711V4.68917L48.2511 18.0292H46.0511L55.6311 0.529174H57.4711V18.0292ZM54.3911 0.529174L44.8111 18.0292H42.9711V0.529174H44.9711V13.9692L52.1911 0.529174H54.3911ZM83.6542 18.0292H81.5342L75.6542 0.529174H77.7742L83.6542 18.0292ZM68.6942 18.0292H66.5742L72.4542 0.529174H74.4542L80.3342 18.0292H78.2142L73.4542 4.04917L68.6942 18.0292ZM92.7445 18.0292V0.529174H94.7445V16.2092H99.4645C100.385 16.2092 101.151 15.9025 101.765 15.2892C102.378 14.6758 102.685 13.9092 102.685 12.9892C102.685 12.0558 102.371 11.2958 101.745 10.7092C101.131 10.1092 100.371 9.80917 99.4645 9.80917H95.8445V0.529174H97.8445V7.98917H99.4645C100.891 7.98917 102.118 8.47584 103.145 9.44917C104.171 10.4225 104.685 11.6092 104.685 13.0092C104.685 14.3692 104.165 15.5492 103.125 16.5492C102.098 17.5358 100.878 18.0292 99.4645 18.0292H92.7445ZM126.374 8.32917H114.194V0.529174H116.194V6.50917H124.374V0.529174H126.374V8.32917ZM126.374 18.0292H124.374V11.2292H116.194V18.0292H114.194V9.42917H126.374V18.0292ZM136.073 18.0292V0.529174H138.073V16.2092H142.793C143.713 16.2092 144.479 15.9025 145.093 15.2892C145.706 14.6758 146.013 13.9092 146.013 12.9892C146.013 12.0558 145.699 11.2958 145.073 10.7092C144.459 10.1092 143.699 9.80917 142.793 9.80917H139.173V0.529174H141.173V7.98917H142.793C144.219 7.98917 145.446 8.47584 146.473 9.44917C147.499 10.4225 148.013 11.6092 148.013 13.0092C148.013 14.3692 147.493 15.5492 146.453 16.5492C145.426 17.5358 144.206 18.0292 142.793 18.0292H136.073ZM150.753 0.529174V18.0292H148.753V0.529174H150.753ZM174.952 18.0292H172.952V4.68917L165.732 18.0292H163.532L173.112 0.529174H174.952V18.0292ZM171.872 0.529174L162.292 18.0292H160.452V0.529174H162.452V13.9692L169.672 0.529174H171.872ZM163.552 0.529174H168.272L167.232 2.40917H163.552V0.529174ZM216.196 18.0292H199.156L205.036 0.529174H207.036L211.936 15.0892H209.816L206.036 4.04917L201.896 16.1892H213.476L208.196 0.529174H210.316L216.196 18.0292ZM234.328 18.3492C231.741 18.3492 229.554 17.4492 227.768 15.6492C225.981 13.8492 225.088 11.6825 225.088 9.14917C225.088 6.69584 225.974 4.59584 227.748 2.84917C229.534 1.08917 231.728 0.209174 234.328 0.209174C236.914 0.209174 239.101 1.08251 240.888 2.82917C242.674 4.57584 243.568 6.68251 243.568 9.14917C243.568 11.6692 242.674 13.8358 240.888 15.6492C239.114 17.4492 236.928 18.3492 234.328 18.3492ZM234.328 16.5292C236.421 16.5292 238.148 15.8225 239.508 14.4092C240.881 12.9825 241.568 11.2292 241.568 9.14917C241.568 7.12251 240.888 5.42917 239.528 4.06917C238.168 2.70917 236.434 2.02917 234.328 2.02917C232.234 2.02917 230.501 2.71584 229.128 4.08917C227.768 5.44917 227.088 7.13584 227.088 9.14917C227.088 11.2425 227.768 12.9958 229.128 14.4092C230.488 15.8225 232.221 16.5292 234.328 16.5292ZM269.045 18.0292V3.54917L264.165 9.80917H262.805L256.305 0.529174H258.785L263.485 7.46917L268.965 0.529174H271.045V18.0292H269.045ZM255.065 18.0292H253.065V0.529174H255.145L261.645 9.80917H259.305L255.065 3.52917V18.0292Z" fill="white"/>
</svg>
