<svg width="89" height="74" viewBox="0 0 89 74" fill="none" xmlns="http://www.w3.org/2000/svg" class="promo__svg-tablet">
                <rect x="8.97559" y="1.41046" width="71.3245" height="71.3245" stroke="#F6804F"></rect>
                <rect opacity="0.4" x="0.5" y="6.49585" width="87.1455" height="61.1538" fill="#645C5D" stroke="white"></rect>
                <line x1="25.614" y1="72.9213" x2="80.9875" y2="5.68213" stroke="#F6804F"></line>
                <circle cx="63.8571" cy="18.9958" r="3.45524" stroke="#F6804F"></circle>
                <circle cx="67.8122" cy="28.9594" r="3.45524" stroke="#F6804F"></circle>
                <path d="M19.24 45V19L21.52 21.36H13.32V17H24.44V45H19.24ZM44.4744 45.4C42.261 45.4 40.261 44.84 38.4744 43.72C36.7144 42.6 35.3277 40.9733 34.3144 38.84C33.301 36.68 32.7944 34.0667 32.7944 31C32.7944 27.9333 33.301 25.3333 34.3144 23.2C35.3277 21.04 36.7144 19.4 38.4744 18.28C40.261 17.16 42.261 16.6 44.4744 16.6C46.7144 16.6 48.7144 17.16 50.4744 18.28C52.2344 19.4 53.621 21.04 54.6344 23.2C55.6744 25.3333 56.1944 27.9333 56.1944 31C56.1944 34.0667 55.6744 36.68 54.6344 38.84C53.621 40.9733 52.2344 42.6 50.4744 43.72C48.7144 44.84 46.7144 45.4 44.4744 45.4ZM44.4744 40.88C45.781 40.88 46.9144 40.5333 47.8744 39.84C48.8344 39.12 49.581 38.0267 50.1144 36.56C50.6744 35.0933 50.9544 33.24 50.9544 31C50.9544 28.7333 50.6744 26.88 50.1144 25.44C49.581 23.9733 48.8344 22.8933 47.8744 22.2C46.9144 21.48 45.781 21.12 44.4744 21.12C43.221 21.12 42.101 21.48 41.1144 22.2C40.1544 22.8933 39.3944 23.9733 38.8344 25.44C38.301 26.88 38.0344 28.7333 38.0344 31C38.0344 33.24 38.301 35.0933 38.8344 36.56C39.3944 38.0267 40.1544 39.12 41.1144 39.84C42.101 40.5333 43.221 40.88 44.4744 40.88Z" fill="#F7804F"></path>
              </svg>