<svg width="156" height="128" viewBox="0 0 156 128" fill="none" xmlns="http://www.w3.org/2000/svg" class="promo__svg-pc">
                <rect x="15.5" y="0.5" width="127" height="127" stroke="#F6804F"/>
                <rect opacity="0.4" x="0.5" y="9.5" width="155" height="109" fill="#645C5D" stroke="white"/>
                <line x1="44.614" y1="127.682" x2="142.614" y2="8.68216" stroke="#F6804F"/>
                <circle cx="112" cy="32" r="6.5" stroke="#F6804F"/>
                <circle cx="119" cy="52" r="6.5" stroke="#F6804F"/>
                <path d="M37.984 87V45.4L41.632 49.176H28.512V42.2H46.304V87H37.984ZM78.359 87.64C74.8177 87.64 71.6177 86.744 68.759 84.952C65.943 83.16 63.7243 80.5573 62.103 77.144C60.4817 73.688 59.671 69.5067 59.671 64.6C59.671 59.6933 60.4817 55.5333 62.103 52.12C63.7243 48.664 65.943 46.04 68.759 44.248C71.6177 42.456 74.8177 41.56 78.359 41.56C81.943 41.56 85.143 42.456 87.959 44.248C90.775 46.04 92.9937 48.664 94.615 52.12C96.279 55.5333 97.111 59.6933 97.111 64.6C97.111 69.5067 96.279 73.688 94.615 77.144C92.9937 80.5573 90.775 83.16 87.959 84.952C85.143 86.744 81.943 87.64 78.359 87.64ZM78.359 80.408C80.4497 80.408 82.263 79.8533 83.799 78.744C85.335 77.592 86.5297 75.8427 87.383 73.496C88.279 71.1493 88.727 68.184 88.727 64.6C88.727 60.9733 88.279 58.008 87.383 55.704C86.5297 53.3573 85.335 51.6293 83.799 50.52C82.263 49.368 80.4497 48.792 78.359 48.792C76.3537 48.792 74.5617 49.368 72.983 50.52C71.447 51.6293 70.231 53.3573 69.335 55.704C68.4817 58.008 68.055 60.9733 68.055 64.6C68.055 68.184 68.4817 71.1493 69.335 73.496C70.231 75.8427 71.447 77.592 72.983 78.744C74.5617 79.8533 76.3537 80.408 78.359 80.408Z" fill="#F7804F"/>
              </svg>